<svg width="25" height="18" viewBox="0 0 25 18" fill="none" xmlns="http://www.w3.org/2000/svg">
<path d="M23.75 0.25H1.25C0.559644 0.25 0 0.809644 0 1.5C0 2.19036 0.559644 2.75 1.25 2.75H23.75C24.4404 2.75 25 2.19036 25 1.5C25 0.809644 24.4404 0.25 23.75 0.25Z" fill="white"/>
<path d="M23.75 7.75H1.25C0.559644 7.75 0 8.30964 0 9C0 9.69036 0.559644 10.25 1.25 10.25H23.75C24.4404 10.25 25 9.69036 25 9C25 8.30964 24.4404 7.75 23.75 7.75Z" fill="white"/>
<path d="M23.75 15.25H1.25C0.559644 15.25 0 15.8096 0 16.5C0 17.1904 0.559644 17.75 1.25 17.75H23.75C24.4404 17.75 25 17.1904 25 16.5C25 15.8096 24.4404 15.25 23.75 15.25Z" fill="white"/>
</svg>